<mxfile host="app.diagrams.net" modified="2023-08-28T19:16:57.506Z" agent="Mozilla/5.0 (Windows NT 10.0; Win64; x64) AppleWebKit/537.36 (KHTML, like Gecko) Chrome/114.0.0.0 YaBrowser/23.7.3.824 Yowser/2.5 Safari/537.36" etag="kD--APrQP_J9EiS5QvDq" version="21.6.9" type="github">
  <diagram name="Страница — 1" id="hyKvDjIBRFFXDoA74jE9">
    <mxGraphModel dx="1402" dy="951" grid="1" gridSize="10" guides="1" tooltips="1" connect="1" arrows="1" fold="1" page="0" pageScale="1" pageWidth="827" pageHeight="1169" math="0" shadow="0">
      <root>
        <mxCell id="0" />
        <mxCell id="1" parent="0" />
        <mxCell id="7gLpIp8xyjIo4Bxls_Mm-1" value="Client" style="rounded=0;whiteSpace=wrap;html=1;fillColor=#dae8fc;strokeColor=#6c8ebf;" vertex="1" parent="1">
          <mxGeometry y="100" width="190" height="140" as="geometry" />
        </mxCell>
        <mxCell id="7gLpIp8xyjIo4Bxls_Mm-3" value="Request Body&lt;br&gt;actio : actionType&lt;br&gt;Body : bodyType" style="rounded=0;whiteSpace=wrap;html=1;fillColor=#d5e8d4;strokeColor=#82b366;" vertex="1" parent="1">
          <mxGeometry x="-170" y="260" width="170" height="160" as="geometry" />
        </mxCell>
        <mxCell id="7gLpIp8xyjIo4Bxls_Mm-4" value="Server" style="rounded=0;whiteSpace=wrap;html=1;fillColor=#f8cecc;strokeColor=#b85450;" vertex="1" parent="1">
          <mxGeometry x="940" y="100" width="190" height="140" as="geometry" />
        </mxCell>
        <mxCell id="7gLpIp8xyjIo4Bxls_Mm-14" value="Work with message" style="swimlane;whiteSpace=wrap;html=1;fillColor=#fff2cc;strokeColor=#d6b656;" vertex="1" parent="1">
          <mxGeometry x="280" y="-80" width="390" height="910" as="geometry" />
        </mxCell>
        <mxCell id="7gLpIp8xyjIo4Bxls_Mm-25" value="Send" style="swimlane;whiteSpace=wrap;html=1;fillColor=#fff2cc;strokeColor=#d6b656;" vertex="1" parent="7gLpIp8xyjIo4Bxls_Mm-14">
          <mxGeometry x="20" y="30" width="350" height="290" as="geometry" />
        </mxCell>
        <mxCell id="7gLpIp8xyjIo4Bxls_Mm-27" value="message :&amp;nbsp;{&lt;span style=&quot;background-color: initial;&quot;&gt;id: &amp;lt;message id if need&amp;gt;,&lt;/span&gt;&lt;br&gt;&lt;div&gt;&amp;nbsp; sender: {&lt;span style=&quot;background-color: initial;&quot;&gt;id: &amp;lt;sender id&amp;gt;&lt;/span&gt;&lt;span style=&quot;background-color: initial;&quot;&gt;},&lt;/span&gt;&lt;/div&gt;&lt;div&gt;&amp;nbsp;&lt;span style=&quot;white-space: pre;&quot;&gt;&#x9;&lt;/span&gt;content : &amp;lt;message Content&amp;gt;,&lt;/div&gt;&lt;div&gt;&amp;nbsp; date: &amp;lt;send Date&amp;gt;&lt;span style=&quot;background-color: initial;&quot;&gt;}&lt;/span&gt;&lt;/div&gt;" style="rounded=0;whiteSpace=wrap;html=1;fillColor=#fff2cc;strokeColor=#d6b656;" vertex="1" parent="7gLpIp8xyjIo4Bxls_Mm-25">
          <mxGeometry y="90" width="350" height="200" as="geometry" />
        </mxCell>
        <mxCell id="7gLpIp8xyjIo4Bxls_Mm-26" value="action :&amp;nbsp;/water/chat/message/send" style="whiteSpace=wrap;html=1;fillColor=#fff2cc;strokeColor=#d6b656;" vertex="1" parent="7gLpIp8xyjIo4Bxls_Mm-25">
          <mxGeometry y="30" width="350" height="60" as="geometry" />
        </mxCell>
        <mxCell id="7gLpIp8xyjIo4Bxls_Mm-28" value="Update" style="swimlane;whiteSpace=wrap;html=1;fillColor=#fff2cc;strokeColor=#d6b656;" vertex="1" parent="7gLpIp8xyjIo4Bxls_Mm-14">
          <mxGeometry x="20" y="320" width="350" height="290" as="geometry" />
        </mxCell>
        <mxCell id="7gLpIp8xyjIo4Bxls_Mm-29" value="message :&amp;nbsp;{&lt;span style=&quot;background-color: initial;&quot;&gt;id: &amp;lt;message id&amp;gt;&lt;/span&gt;&lt;span style=&quot;background-color: initial;&quot;&gt;,&lt;br&gt;&lt;/span&gt;sender: {id: &amp;lt;sender id&amp;gt;&lt;span style=&quot;border-color: var(--border-color); background-color: initial;&quot;&gt;},&lt;/span&gt;&lt;span style=&quot;background-color: initial;&quot;&gt;&lt;br&gt;&lt;/span&gt;&lt;div&gt;&amp;nbsp;&lt;span style=&quot;&quot;&gt;&lt;span style=&quot;white-space: pre;&quot;&gt;&amp;nbsp;&amp;nbsp;&amp;nbsp;&amp;nbsp;&lt;/span&gt;&lt;/span&gt;content : &amp;lt;message Content&amp;gt;&lt;span style=&quot;background-color: initial;&quot;&gt;}&lt;/span&gt;&lt;/div&gt;" style="rounded=0;whiteSpace=wrap;html=1;fillColor=#fff2cc;strokeColor=#d6b656;" vertex="1" parent="7gLpIp8xyjIo4Bxls_Mm-28">
          <mxGeometry y="90" width="350" height="200" as="geometry" />
        </mxCell>
        <mxCell id="7gLpIp8xyjIo4Bxls_Mm-30" value="action :&amp;nbsp;/water/chat/message/update" style="whiteSpace=wrap;html=1;fillColor=#fff2cc;strokeColor=#d6b656;" vertex="1" parent="7gLpIp8xyjIo4Bxls_Mm-28">
          <mxGeometry y="30" width="350" height="60" as="geometry" />
        </mxCell>
        <mxCell id="7gLpIp8xyjIo4Bxls_Mm-31" value="Remove" style="swimlane;whiteSpace=wrap;html=1;fillColor=#fff2cc;strokeColor=#d6b656;" vertex="1" parent="7gLpIp8xyjIo4Bxls_Mm-14">
          <mxGeometry x="20" y="610" width="350" height="290" as="geometry" />
        </mxCell>
        <mxCell id="7gLpIp8xyjIo4Bxls_Mm-32" value="message :&amp;nbsp;{id: &amp;lt;message id&amp;gt;,&lt;br&gt;sender: {&lt;span style=&quot;border-color: var(--border-color); background-color: initial;&quot;&gt;id: &amp;lt;sender id&amp;gt;&lt;/span&gt;&lt;span style=&quot;border-color: var(--border-color); background-color: initial;&quot;&gt;}&lt;/span&gt;&lt;span style=&quot;background-color: initial;&quot;&gt;&lt;br&gt;&lt;/span&gt;&lt;span style=&quot;background-color: initial;&quot;&gt;}&lt;/span&gt;&lt;span style=&quot;background-color: initial;&quot;&gt;&lt;br&gt;&lt;/span&gt;" style="rounded=0;whiteSpace=wrap;html=1;fillColor=#fff2cc;strokeColor=#d6b656;" vertex="1" parent="7gLpIp8xyjIo4Bxls_Mm-31">
          <mxGeometry y="90" width="350" height="200" as="geometry" />
        </mxCell>
        <mxCell id="7gLpIp8xyjIo4Bxls_Mm-33" value="action :&amp;nbsp;/water/chat/message/remove" style="whiteSpace=wrap;html=1;fillColor=#fff2cc;strokeColor=#d6b656;" vertex="1" parent="7gLpIp8xyjIo4Bxls_Mm-31">
          <mxGeometry y="30" width="350" height="60" as="geometry" />
        </mxCell>
        <mxCell id="7gLpIp8xyjIo4Bxls_Mm-17" value="" style="shape=filledEdge;curved=0;rounded=0;fixDash=1;endArrow=none;strokeWidth=10;fillColor=#ffffff;edgeStyle=orthogonalEdgeStyle;html=1;exitX=1;exitY=0.5;exitDx=0;exitDy=0;entryX=0;entryY=0.5;entryDx=0;entryDy=0;" edge="1" parent="1" source="7gLpIp8xyjIo4Bxls_Mm-1" target="7gLpIp8xyjIo4Bxls_Mm-14">
          <mxGeometry width="60" height="40" relative="1" as="geometry">
            <mxPoint x="240" y="340" as="sourcePoint" />
            <mxPoint x="300" y="300" as="targetPoint" />
          </mxGeometry>
        </mxCell>
        <mxCell id="7gLpIp8xyjIo4Bxls_Mm-18" value="" style="shape=filledEdge;curved=0;rounded=0;fixDash=1;endArrow=none;strokeWidth=10;fillColor=#ffffff;edgeStyle=orthogonalEdgeStyle;html=1;exitX=1;exitY=0.5;exitDx=0;exitDy=0;entryX=0;entryY=0.5;entryDx=0;entryDy=0;" edge="1" parent="1" source="7gLpIp8xyjIo4Bxls_Mm-14" target="7gLpIp8xyjIo4Bxls_Mm-4">
          <mxGeometry width="60" height="40" relative="1" as="geometry">
            <mxPoint x="740" y="340" as="sourcePoint" />
            <mxPoint x="800" y="300" as="targetPoint" />
          </mxGeometry>
        </mxCell>
      </root>
    </mxGraphModel>
  </diagram>
</mxfile>
